# xmcd
#
# Track frame offsets: 
#        150
#        18007
#        40605
#        56888
#        78890
#        95900
#        115019
#        140187
#        159813
#        176543
#        192306
#        210686
#        232333
#
# Disc length: 3326 seconds
#
# Revision: 3
# Processed by: cddbd v1.5.2PL0 Copyright (c) Steve Scherf et al.
# Submitted via: ExactAudioCopyFreeDBPlugin 1.0
#
DISCID=ad0cfc0d
DTITLE=Donell Jones - Lyrics
DYEAR=2010
DGENRE=Soul
TTITLE0=The World Is Yours
TTITLE1=Your Place
TTITLE2=Love Like This
TTITLE3=Imagine That
TTITLE4=Backdoor
TTITLE5=Blackmail
TTITLE6=All About The Sex
TTITLE7=Stripclub featuring Yung Joc
TTITLE8=What's Next featuring Inessa
TTITLE9=You Can Burn
TTITLE10=The Finer Things In Life
TTITLE11=Just A Little
TTITLE12=O How I Wonder
EXTD=
EXTT0=
EXTT1=
EXTT2=
EXTT3=
EXTT4=
EXTT5=
EXTT6=
EXTT7=
EXTT8=
EXTT9=
EXTT10=
EXTT11=
EXTT12=
PLAYORDER=
